<svg height="64" width="64" xmlns="http://www.w3.org/2000/svg">
	<circle cx="32" cy="32" fill="#77B3D4" r="32"/>
	<path d="M48 50a4 4 0 0 1-4 4H20a4 4 0 0 1-4-4V18a4 4 0 0 1 4-4h24a4 4 0 0 1 4 4v32z" fill="#231F20" opacity=".2"/>
	<path d="M48 48a4 4 0 0 1-4 4H20a4 4 0 0 1-4-4V16a4 4 0 0 1 4-4h24a4 4 0 0 1 4 4v32z" fill="#4F5D73"/>
	<path d="M35 14v7.846c0 .264.163.503.411.604a.673.673 0 0 0 .726-.142L39 19.501l2.862 2.807a.673.673 0 0 0 .726.142.655.655 0 0 0 .412-.604V14h-8z" fill="#231F20" opacity=".2"/>
	<path d="M35 12v7.846c0 .264.163.503.411.604a.673.673 0 0 0 .726-.142L39 17.501l2.862 2.807a.673.673 0 0 0 .726.142.655.655 0 0 0 .412-.604V12h-8z" fill="#C75C5C"/>
	<path fill="#E0E0D1" d="M20 12h3v40h-3z"/>
</svg>